<?xml version="1.0" encoding="UTF-8" standalone="no"?>
<!-- Created with Inkscape (http://www.inkscape.org/) -->

<svg
   xmlns:dc="http://purl.org/dc/elements/1.1/"
   xmlns:cc="http://creativecommons.org/ns#"
   xmlns:rdf="http://www.w3.org/1999/02/22-rdf-syntax-ns#"
   xmlns:svg="http://www.w3.org/2000/svg"
   xmlns="http://www.w3.org/2000/svg"
   xmlns:sodipodi="http://sodipodi.sourceforge.net/DTD/sodipodi-0.dtd"
   xmlns:inkscape="http://www.inkscape.org/namespaces/inkscape"
   version="1.1"
   id="svg27827"
   xml:space="preserve"
   width="800"
   height="800"
   viewBox="0 0 800 800"
   sodipodi:docname="Italy-eagle-flag-publicdomainvectors.org.svg"
   inkscape:version="0.92.4 (5da689c313, 2019-01-14)"><metadata
     id="metadata27833"><rdf:RDF><cc:Work
         rdf:about=""><dc:format>image/svg+xml</dc:format><dc:type
           rdf:resource="http://purl.org/dc/dcmitype/StillImage" /><dc:title></dc:title></cc:Work></rdf:RDF></metadata><defs
     id="defs27831"><clipPath
       clipPathUnits="userSpaceOnUse"
       id="clipPath27843"><path
         d="M 0,600 H 600 V 0 H 0 Z"
         id="path27841"
         inkscape:connector-curvature="0" /></clipPath></defs><sodipodi:namedview
     pagecolor="#ffffff"
     bordercolor="#666666"
     borderopacity="1"
     objecttolerance="10"
     gridtolerance="10"
     guidetolerance="10"
     inkscape:pageopacity="0"
     inkscape:pageshadow="2"
     inkscape:window-width="724"
     inkscape:window-height="480"
     id="namedview27829"
     showgrid="false"
     inkscape:zoom="0.295"
     inkscape:cx="400"
     inkscape:cy="400"
     inkscape:window-x="0"
     inkscape:window-y="0"
     inkscape:window-maximized="0"
     inkscape:current-layer="g27835" /><g
     id="g27835"
     inkscape:groupmode="layer"
     inkscape:label="Italy-eagle-flag-publicdomainvectors.org"
     transform="matrix(1.3333333,0,0,-1.3333333,0,800)"><g
       id="g27837"><g
         id="g27839"
         clip-path="url(#clipPath27843)"><path
           d="M 600,0 H 0 v 599.359 h 600 z"
           style="fill:#231f20;fill-opacity:1;fill-rule:nonzero;stroke:none"
           id="path27845"
           inkscape:connector-curvature="0" /><path
           d="m 232.175,434.716 c 3.496,0.913 6.391,1.343 8.792,1.444 v 5.134 c -2.581,-2.362 -5.497,-4.583 -8.792,-6.578"
           style="fill:#15a75f;fill-opacity:1;fill-rule:nonzero;stroke:none"
           id="path27847"
           inkscape:connector-curvature="0" /><path
           d="m 214.375,510.891 c 1.381,-11.749 11.061,-14.372 12.299,-14.656 -2.334,5.152 4.996,12.277 14.294,11.314 v 16.557 c -16.659,1.761 -28.023,-1.066 -26.593,-13.215"
           style="fill:#15a75f;fill-opacity:1;fill-rule:nonzero;stroke:none"
           id="path27849"
           inkscape:connector-curvature="0" /><path
           d="M 202.071,501.205 C 213.851,530 182.214,542.78 163.197,525.551 132.681,497.906 96.055,429.613 61.501,411.289 c 27.747,-1.179 65.18,32.589 65.18,32.589 1.57,-21.204 -59.291,-84.025 -75.782,-95.023 29.841,2.357 64.788,29.844 64.788,29.844 -9.425,-24.347 -35.732,-67.93 -70.677,-95.809 37.694,8.636 86.776,60.468 86.776,60.468 C 121.184,309.59 97.624,282.89 97.624,282.89 c 18.063,-5.498 70.678,66.751 70.678,66.751 1.57,-16.492 -15.184,-50.26 -25.652,-63.61 37.693,17.573 66.489,75.39 66.489,75.39 0,0 2.878,-21.989 -16.23,-48.69 15.705,-1.569 39.396,29.449 44.109,58.114 1.52,-2.992 2.855,-6.121 3.949,-9.275 v 67.127 c -22.035,-0.862 -63.546,12.258 -38.896,72.508"
           style="fill:#15a75f;fill-opacity:1;fill-rule:nonzero;stroke:none"
           id="path27851"
           inkscape:connector-curvature="0" /><path
           d="m 232.697,491.333 c -0.182,-1.848 3.487,-3.01 8.271,-4.027 v 3.567 c -2.87,0.061 -5.719,0.199 -8.271,0.46"
           style="fill:#15a75f;fill-opacity:1;fill-rule:nonzero;stroke:none"
           id="path27853"
           inkscape:connector-curvature="0" /><path
           d="m 237.672,328.173 c -26.177,-19.368 -26.483,-64.533 -36.978,-62.309 -6.018,0.264 -0.458,26.449 -5.17,34.068 -1.883,3.045 -7.851,2.59 -13.348,-0.026 -3.927,0.524 -12.995,-4.57 -8.545,-9.804 -1.833,2.093 4.389,5.942 8.021,4.566 0,0 -0.949,-3.241 0.884,-6.381 1.832,-3.14 7.232,-2.516 9.064,-3.565 1.83,-1.051 0.262,-14.398 -2.094,-18.064 -4.451,1.572 -15.707,18.064 -18.327,20.682 -2.871,2.875 -10.73,-0.784 -9.421,-9.948 -2.621,-2.355 -11.779,-8.377 -3.928,-17.017 -3.141,3.403 2.619,11.52 5.498,11.52 2.095,-3.403 6.542,-6.803 7.851,-5.758 1.311,1.046 12.566,8.897 11.78,-5.762 -5.035,-1.241 -24.277,0.427 -25.257,-3.107 -0.982,-3.534 0,-9.914 0,-9.914 -4.517,-1.769 -4.517,-16.097 3.338,-17.667 -1.768,3.727 -1.768,9.812 -0.199,13.153 4.712,-3.535 9.423,-1.769 10.604,0.389 -1.573,3.731 5.436,17.761 16.294,0.394 2.291,-3.664 2.161,-9.293 -5.168,-14.397 -3.875,-2.696 1.7,-8.375 1.7,-8.375 1.308,-3.141 -8.114,-7.849 -10.732,-6.543 9.421,-5.24 14.658,3.139 14.658,3.139 5.234,0 12.303,2.612 12.827,7.59 -2.356,6.284 -4.552,17.995 1.047,28.011 6.984,12.498 25.327,20.222 38.895,29.967 v 48.62 c -0.894,-1.326 -1.987,-2.492 -3.294,-3.462"
           style="fill:#15a75f;fill-opacity:1;fill-rule:nonzero;stroke:none"
           id="path27855"
           inkscape:connector-curvature="0" /><path
           d="m 231.651,156.193 c 2.833,1.522 5.98,4.273 9.315,7.745 v 24.486 c -4.285,-12.356 -8.786,-24.256 -9.315,-32.231"
           style="fill:#15a75f;fill-opacity:1;fill-rule:nonzero;stroke:none"
           id="path27857"
           inkscape:connector-curvature="0" /><path
           d="m 195.001,179.749 c 9.514,6.849 33.545,28.635 45.965,40.024 v 42.791 c -16.249,-28.834 -41.828,-65.75 -45.965,-82.815"
           style="fill:#15a75f;fill-opacity:1;fill-rule:nonzero;stroke:none"
           id="path27859"
           inkscape:connector-curvature="0" /><path
           d="m 336.55,429.223 v 18.172 c -2.685,3.918 -5.081,7.515 -6.471,9.833 0,0 3.52,0 6.471,-1.168 v 5.138 c -6.684,14.46 -20.775,39.255 -24.275,43.408 l 8.376,-1.437 c -20.416,26.348 -74.208,35.731 -74.601,20.286 -1.742,0.259 -3.439,0.479 -5.082,0.651 v -16.557 c 6.297,-0.651 13.495,-5.014 19.201,-16.216 0,0 -9.714,-0.662 -19.201,-0.46 v -3.567 c 5.54,-1.177 12.575,-2.16 16.86,-3.78 2.385,-5.099 0.036,-26.756 -16.861,-42.232 v -5.134 c 10.001,0.43 11.364,-4.847 11.364,-4.847 -1.838,-1.379 -6.03,-2.407 -11.364,-2.616 V 361.57 c 3.912,-11.276 4.745,-22.896 -0.001,-29.935 v -48.62 c 5.756,4.132 10.653,8.63 13.46,14.008 0.892,-6.706 -5.028,-19.496 -13.46,-34.459 v -42.791 c 4.669,4.283 7.699,7.096 7.699,7.096 1.663,-10.108 -2.883,-24.563 -7.699,-38.445 v -24.486 c 13.19,13.716 29.35,38.65 40.946,43.036 0,0 8.181,-80.363 13.416,-86.646 11.519,21.989 17.995,84.552 17.995,84.552 0,0 10.961,-11.68 23.227,-23.43 v 105.927 c -0.387,1.943 -0.508,3.65 -0.318,5.078 0.102,-0.196 0.209,-0.386 0.318,-0.578 v 136.309 c -0.244,0.433 -0.236,0.779 0,1.037"
           style="fill:#ffffff;fill-opacity:1;fill-rule:nonzero;stroke:none"
           id="path27861"
           inkscape:connector-curvature="0" /><path
           d="m 545.647,278.317 c -34.943,27.881 -61.252,71.467 -70.677,95.81 0,0 34.947,-27.484 64.789,-29.841 -16.493,10.993 -77.354,73.82 -75.781,95.023 0,0 37.432,-33.768 65.178,-32.59 -34.552,18.324 -71.182,86.614 -101.697,114.26 -19.017,17.229 -50.652,4.451 -38.874,-24.343 30.617,-74.837 -40.708,-77.365 -50.133,-70.296 -1.001,0.728 -1.621,1.345 -1.902,1.846 V 291.877 c 9.817,-17.66 42.199,-25.794 52.035,-43.4 5.597,-10.019 3.403,-21.731 1.049,-28.014 0.521,-4.975 7.59,-7.59 12.825,-7.59 0,0 5.235,-8.373 14.659,-3.141 -2.617,-1.306 -12.041,3.406 -10.733,6.544 0,0 5.573,5.685 1.703,8.375 -7.33,5.108 -7.463,10.734 -5.17,14.401 10.857,17.364 17.864,3.338 16.295,-0.393 1.179,-2.157 5.891,-3.927 10.601,-0.393 1.572,-3.337 1.572,-9.421 -0.197,-13.152 7.854,1.572 7.854,15.902 3.338,17.668 0,0 0.983,6.381 0,9.915 -0.98,3.536 -20.221,1.866 -25.258,3.104 -0.785,14.659 10.468,6.81 11.778,5.762 1.311,-1.042 5.758,2.356 7.853,5.76 2.879,0 8.638,-8.116 5.497,-11.522 7.853,8.64 -1.308,14.665 -3.928,17.019 1.31,9.161 -6.548,12.825 -9.422,9.947 -2.62,-2.621 -13.874,-19.112 -18.323,-20.681 -2.358,3.667 -3.926,17.011 -2.093,18.06 1.83,1.05 7.231,0.431 9.06,3.571 1.836,3.14 0.885,6.381 0.885,6.381 3.631,1.373 9.853,-2.473 8.024,-4.57 4.45,5.239 -4.62,10.33 -8.545,9.802 -5.501,2.62 -11.466,3.075 -13.351,0.025 -4.711,-7.613 0.847,-33.797 -5.171,-34.062 -10.492,-2.227 -10.798,42.941 -36.977,62.311 -10.187,7.54 -7.328,26.965 0.657,42.671 4.711,-28.666 28.4,-59.685 44.105,-58.114 -19.106,26.703 -16.229,48.691 -16.229,48.691 0,0 28.796,-57.821 66.491,-75.393 -10.47,13.352 -27.226,47.121 -25.654,63.613 0,0 52.616,-72.252 70.679,-66.755 0,0 -23.56,26.703 -34.162,60.474 0,0 49.081,-51.835 86.776,-60.474"
           style="fill:#cc3a50;fill-opacity:1;fill-rule:nonzero;stroke:none"
           id="path27863"
           inkscape:connector-curvature="0" /><path
           d="m 361.102,160.522 c -1.128,16.934 -22.252,42.665 -19.112,61.775 0,0 40.573,-37.695 53.662,-47.116 -5.824,24.027 -54.184,87.441 -59.102,112.196 V 181.45 c 8.67,-8.307 17.991,-16.651 24.552,-20.928"
           style="fill:#cc3a50;fill-opacity:1;fill-rule:nonzero;stroke:none"
           id="path27865"
           inkscape:connector-curvature="0" /><path
           d="m 351.02,426.863 c 0,0 -8.061,11.181 -14.47,20.532 v -18.172 c 1.056,1.15 6.685,0.47 14.47,-2.36"
           style="fill:#cc3a50;fill-opacity:1;fill-rule:nonzero;stroke:none"
           id="path27867"
           inkscape:connector-curvature="0" /><path
           d="m 339.5,454.087 c -0.604,1.809 -1.633,4.261 -2.95,7.111 v -5.138 c 1.151,-0.456 2.217,-1.091 2.95,-1.973"
           style="fill:#cc3a50;fill-opacity:1;fill-rule:nonzero;stroke:none"
           id="path27869"
           inkscape:connector-curvature="0" /></g></g></g></svg>