<?xml version="1.0" encoding="UTF-8" standalone="no"?>
<!-- Created with Inkscape (http://www.inkscape.org/) -->

<svg
   version="1.1"
   id="svg26224"
   xml:space="preserve"
   width="530.66669"
   height="530.66669"
   viewBox="0 0 530.66669 530.66669"
   sodipodi:docname="wild-boar-silhouette-publicdomainvectors.org.svg"
   inkscape:version="1.1.2 (b8e25be833, 2022-02-05)"
   xmlns:inkscape="http://www.inkscape.org/namespaces/inkscape"
   xmlns:sodipodi="http://sodipodi.sourceforge.net/DTD/sodipodi-0.dtd"
   xmlns="http://www.w3.org/2000/svg"
   xmlns:svg="http://www.w3.org/2000/svg"><defs
     id="defs26228"><clipPath
       clipPathUnits="userSpaceOnUse"
       id="clipPath26238"><path
         d="M 0,398 H 398 V 0 H 0 Z"
         id="path26236" /></clipPath></defs><sodipodi:namedview
     id="namedview26226"
     pagecolor="#ffffff"
     bordercolor="#666666"
     borderopacity="1.0"
     inkscape:pageshadow="2"
     inkscape:pageopacity="0.0"
     inkscape:pagecheckerboard="0"
     showgrid="false"
     inkscape:zoom="1.5659547"
     inkscape:cx="265.33334"
     inkscape:cy="265.33334"
     inkscape:window-width="1920"
     inkscape:window-height="1018"
     inkscape:window-x="-8"
     inkscape:window-y="-8"
     inkscape:window-maximized="1"
     inkscape:current-layer="g26230" /><g
     id="g26230"
     inkscape:groupmode="layer"
     inkscape:label="wild-boar-silhouette-publicdomainvectors.org"
     transform="matrix(1.3333333,0,0,-1.3333333,0,530.66667)"><g
       id="g26232"><g
         id="g26234"
         clip-path="url(#clipPath26238)"><path
           d="m 362.602,100.396 c 0.715,-0.403 1.461,-0.775 2.239,-1.109 0.298,-0.126 0.49,-0.309 0.596,-0.618 0.912,-2.675 2.704,-4.717 4.834,-6.467 0.425,-0.348 0.859,-0.683 1.296,-1.014 l 6.58,16.841 c -0.396,0.31 -0.834,0.565 -1.374,0.676 -4.069,0.868 -7.419,2.985 -10.241,6.005 -0.353,0.374 -0.54,0.801 -0.669,1.301 -0.772,3.027 -1.529,6.058 -2.392,9.06 -1.026,3.541 -2.138,7.057 -3.906,10.326 -0.44,0.82 -1.005,1.381 -1.91,1.753 -2.351,0.962 -4.474,2.337 -6.436,3.951 -0.509,0.418 -0.997,0.852 -1.475,1.295 l -2.075,-1 z"
           style="fill:#dae262;fill-opacity:1;fill-rule:nonzero;stroke:none"
           id="path26240" /><path
           d="m 382.513,84.157 c 0.272,-0.173 0.474,-0.151 0.713,0.045 1.02,0.819 2.03,1.654 2.847,2.668 l -6.139,-1.099 c 0.865,-0.531 1.728,-1.065 2.579,-1.614"
           style="fill:#74e0e0;fill-opacity:1;fill-rule:nonzero;stroke:none"
           id="path26242" /><path
           d="m 379.934,85.771 6.139,1.099 c 0.266,0.33 0.512,0.677 0.732,1.049 0.44,0.746 0.753,1.514 0.389,2.451 -1.198,3.097 -2.318,6.224 -3.502,9.327 -1.075,2.822 -2.483,5.449 -4.69,7.57 -0.277,0.262 -0.553,0.527 -0.855,0.762 l -6.58,-16.841 c 2.66,-1.999 5.532,-3.682 8.367,-5.417"
           style="fill:#afdf7b;fill-opacity:1;fill-rule:nonzero;stroke:none"
           id="path26244" /><path
           d="m 349.744,142.396 c -0.882,0.818 -1.714,1.676 -2.499,2.569 l 0.424,-3.569 z"
           style="fill:#e88200;fill-opacity:1;fill-rule:nonzero;stroke:none"
           id="path26246" /><path
           d="m 333.445,119.826 c 0.278,-2.475 0.264,-4.972 0.013,-7.464 -0.327,-3.273 -1.022,-6.499 -1.631,-9.732 -0.125,-0.68 -0.379,-1.359 -0.28,-2.176 2.712,2.241 4.446,4.968 5.405,8.213 0.753,2.538 0.797,5.184 1.188,7.776 0.392,2.599 0.756,5.206 1.674,7.679 0.625,1.676 0.405,1.61 1.827,0.573 1.215,-0.881 2.285,-1.932 3.295,-3.042 2.924,-3.217 5.202,-6.891 7.396,-10.625 2.596,-4.417 5.853,-8.146 10.27,-10.632 l -14.933,41 z"
           style="fill:#dcf07c;fill-opacity:1;fill-rule:nonzero;stroke:none"
           id="path26248" /><path
           d="m 328.752,105.527 c 0.173,0.498 0.198,0.991 0.326,1.456 0.719,2.655 1.203,5.303 1.178,8.006 l -2.919,-4.427 c 0.321,-1.728 0.662,-3.428 1.415,-5.035"
           style="fill:#dcf07c;fill-opacity:1;fill-rule:nonzero;stroke:none"
           id="path26250" /><path
           d="m 347.669,141.396 -0.424,3.569 c -2.855,3.248 -5.115,6.946 -7.125,10.843 -0.784,1.52 -0.997,3.011 -0.898,4.687 0.349,5.945 1.287,11.829 1.82,17.761 0.496,5.578 -0.401,10.798 -2.627,15.775 l -21.133,-41.77 z"
           style="fill:#f38900;fill-opacity:1;fill-rule:nonzero;stroke:none"
           id="path26252" /><path
           d="m 310.4,234.026 c -0.011,0.052 -0.021,0.107 -0.037,0.162 -1.498,-0.048 -2.998,-0.096 -4.501,-0.144 l 0.13,-1.067 c 1.469,0.349 2.94,0.699 4.408,1.049"
           style="fill:#ef3500;fill-opacity:1;fill-rule:nonzero;stroke:none"
           id="path26254" /><path
           d="m 311.312,229.066 c -0.008,0.059 -0.015,0.118 -0.022,0.176 -1.645,0.253 -3.29,0.503 -4.935,0.756 l 0.258,-2.119 c 1.567,0.396 3.132,0.794 4.699,1.187"
           style="fill:#ef3500;fill-opacity:1;fill-rule:nonzero;stroke:none"
           id="path26256" /><path
           d="m 319.824,218.153 c -0.319,0.401 -0.637,0.802 -0.952,1.206 -1.403,1.812 -3.082,2.951 -5.04,3.858 -2.331,1.082 -4.687,2.111 -7.035,3.157 l 4.408,-36.175 z"
           style="fill:#ef3500;fill-opacity:1;fill-rule:nonzero;stroke:none"
           id="path26258" /><path
           d="m 336.563,197.601 c -2.128,3.571 -4.863,6.668 -7.564,9.804 -3.079,3.565 -6.239,7.066 -9.175,10.748 l -8.619,-27.954 z"
           style="fill:#f43800;fill-opacity:1;fill-rule:nonzero;stroke:none"
           id="path26260" /><path
           d="m 317.282,152.261 21.133,41.77 c -0.371,0.83 -0.779,1.656 -1.225,2.473 -0.201,0.371 -0.413,0.736 -0.627,1.097 l -25.358,-7.402 z"
           style="fill:#f77700;fill-opacity:1;fill-rule:nonzero;stroke:none"
           id="path26262" /><path
           d="m 317.282,152.261 0.74,-15.232 c 0.86,-0.417 1.733,-0.812 2.615,-1.193 2.557,-1.113 5.099,-2.265 7.74,-3.435 -6.388,-7.638 -6.432,-16.214 -3.972,-25.436 0.824,2.355 1.57,4.483 2.312,6.609 0.252,-1.004 0.433,-2.012 0.62,-3.012 l 2.919,4.427 c -0.011,1.286 -0.138,2.585 -0.412,3.901 -0.516,2.465 0.301,4.798 2.024,6.768 0.518,-0.559 0.716,-1.23 0.885,-1.902 0.319,-1.304 0.546,-2.613 0.692,-3.93 l 14.224,21.57 z"
           style="fill:#f2da4a;fill-opacity:1;fill-rule:nonzero;stroke:none"
           id="path26264" /><path
           d="m 311.205,190.199 -4.408,36.175 c -0.413,0.186 -0.827,0.368 -1.238,0.555 -0.25,0.109 -0.619,0.095 -0.685,0.51 0.581,0.146 1.16,0.293 1.739,0.44 l -0.258,2.119 c -2.458,0.375 -4.914,0.752 -7.37,1.126 -0.004,0.058 -0.006,0.121 -0.01,0.18 2.338,0.558 4.677,1.115 7.017,1.673 l -0.13,1.067 c -4.239,-0.136 -8.509,-0.273 -12.899,-0.414 0.956,1.403 1.767,2.597 2.726,4.012 -3.424,-0.817 -6.598,-1.577 -9.994,-2.388 1.328,1.888 2.53,3.6 3.735,5.309 -0.052,0.047 -0.096,0.099 -0.145,0.15 -2.45,-1.039 -4.9,-2.08 -7.619,-3.236 0.883,1.432 1.605,2.603 2.462,3.993 -2.2,-0.735 -4.158,-1.39 -6.117,-2.043 -0.034,0.051 -0.063,0.106 -0.093,0.162 0.897,1.007 1.794,2.013 2.724,3.061 -0.163,0.029 -0.233,0.061 -0.288,0.047 -0.161,-0.037 -0.323,-0.081 -0.481,-0.132 -3.896,-1.322 -7.845,-2.334 -11.836,-3.09 L 248.223,210.64 Z"
           style="fill:#fb6100;fill-opacity:1;fill-rule:nonzero;stroke:none"
           id="path26266" /><path
           d="m 268.037,239.475 c -5.609,-1.064 -11.305,-1.616 -17.067,-1.774 -1.477,-0.041 -2.95,-0.052 -4.42,-0.035 l 1.673,-27.026 z"
           style="fill:#f55a00;fill-opacity:1;fill-rule:nonzero;stroke:none"
           id="path26268" /><path
           d="m 243.434,165.521 5.738,-24.722 c 4.212,1.507 8.275,3.397 12.195,5.657 0.779,0.453 1.087,0.351 1.466,-0.433 0.79,-1.65 1.591,-3.289 2.267,-4.993 2.484,-6.245 3.858,-12.762 4.812,-19.393 0.17,-1.177 -0.065,-2.114 -0.608,-3.114 -2.442,-4.497 -5.666,-8.35 -9.391,-11.823 -0.764,-0.711 -1.55,-1.389 -2.351,-2.049 l 3.935,-16.953 c 0.695,0.514 1.392,1.011 2.148,1.124 1.176,0.177 2.488,-0.532 3.737,-0.874 0.467,-0.124 0.687,-0.098 0.76,0.486 0.353,2.744 1.58,5.121 3.197,7.325 2.968,4.049 6.811,7.169 10.826,10.104 0.037,0.028 0.074,0.054 0.111,0.08 l 13.525,17.897 c 0.013,0.317 0.02,0.638 0.013,0.967 -0.11,4.65 0.111,9.309 0.148,13.966 0.004,0.695 0.184,0.971 0.888,1.119 4.064,0.852 8.12,1.763 12.177,2.659 0.321,0.073 0.612,0.152 0.903,-0.017 l 7.352,9.727 z"
           style="fill:#ffd100;fill-opacity:1;fill-rule:nonzero;stroke:none"
           id="path26270" /><path
           d="m 309.93,142.534 c 0.065,-0.038 0.13,-0.087 0.194,-0.152 2.304,-2.314 5.022,-3.96 7.898,-5.353 l -0.74,15.232 z"
           style="fill:#f9ed2d;fill-opacity:1;fill-rule:nonzero;stroke:none"
           id="path26272" /><path
           d="m 291.656,114.225 c 2.428,2.796 3.987,5.879 4.145,9.615 l -13.525,-17.897 c 3.38,2.475 6.618,5.106 9.38,8.282"
           style="fill:#f9ed2d;fill-opacity:1;fill-rule:nonzero;stroke:none"
           id="path26274" /><path
           d="m 317.282,152.261 -6.077,37.938 -67.771,-24.678 z"
           style="fill:#fd9d00;fill-opacity:1;fill-rule:nonzero;stroke:none"
           id="path26276" /><path
           d="m 311.205,190.199 -62.982,20.441 -4.789,-45.119 z"
           style="fill:#ff9300;fill-opacity:1;fill-rule:nonzero;stroke:none"
           id="path26278" /><path
           d="m 205.03,100.362 c 2.146,1.048 2.16,1.015 0.55,2.889 -0.276,0.323 -0.56,0.638 -0.851,0.945 l -2.925,-4.635 c 1.132,0.076 2.191,0.294 3.226,0.801"
           style="fill:#ffce00;fill-opacity:1;fill-rule:nonzero;stroke:none"
           id="path26280" /><path
           d="m 248.816,98.06 c -4.2,-3.179 -8.394,-6.366 -12.239,-9.972 l 15.989,-4.494 c 2.701,0.77 5.293,1.863 7.762,3.301 0.397,0.231 0.783,0.52 1.169,0.803 l -3.935,16.953 c -2.819,-2.322 -5.833,-4.388 -8.746,-6.591"
           style="fill:#ffce00;fill-opacity:1;fill-rule:nonzero;stroke:none"
           id="path26282" /><path
           d="m 225.22,136.662 c 4.924,0.021 9.81,0.48 14.661,1.503 3.176,0.672 6.271,1.555 9.291,2.634 l -5.738,24.722 z"
           style="fill:#ffce00;fill-opacity:1;fill-rule:nonzero;stroke:none"
           id="path26284" /><path
           d="m 235.018,86.582 c -0.413,-0.412 -0.801,-0.849 -1.342,-1.418 2.738,-0.199 5.243,-0.433 7.757,-0.521 1.005,-0.038 1.527,-0.339 1.674,-1.334 0.052,-0.365 0.096,-0.82 0.676,-0.806 1.398,0.037 2.815,-0.095 4.189,0.103 1.562,0.231 3.094,0.56 4.594,0.988 l -15.989,4.494 c -0.527,-0.493 -1.046,-0.995 -1.559,-1.506"
           style="fill:#f6e63a;fill-opacity:1;fill-rule:nonzero;stroke:none"
           id="path26286" /><path
           d="m 248.223,210.64 -1.673,27.026 c -8.147,0.097 -16.199,1.062 -24.183,2.621 l -30.314,-36.46 z"
           style="fill:#fb6800;fill-opacity:1;fill-rule:nonzero;stroke:none"
           id="path26288" /><path
           d="m 226.516,243.91 c -0.201,0.308 -0.464,0.415 -0.72,0.503 l -0.485,-0.584 c 0.4,0.026 0.8,0.053 1.205,0.081"
           style="fill:#fb6800;fill-opacity:1;fill-rule:nonzero;stroke:none"
           id="path26290" /><path
           d="m 166.639,146 3.406,-4.761 c 6.889,-0.221 13.747,-0.894 20.594,-1.652 10.082,-1.112 20.144,-2.374 30.293,-2.837 1.431,-0.065 2.86,-0.095 4.288,-0.088 l 18.214,28.859 z"
           style="fill:#feb200;fill-opacity:1;fill-rule:nonzero;stroke:none"
           id="path26292" /><path
           d="m 201.774,99.559 c 0.01,0 0.02,0.001 0.03,0.002 l 2.925,4.635 c -2.201,2.339 -4.748,4.282 -7.297,6.23 -3.182,2.428 -6.223,5.012 -8.434,8.41 -0.331,0.503 -0.626,0.311 -0.998,0.165 -0.527,-0.212 -1.051,-0.434 -1.575,-0.659 L 199.95,99.436 c 0.61,0.04 1.217,0.082 1.824,0.123"
           style="fill:#feb200;fill-opacity:1;fill-rule:nonzero;stroke:none"
           id="path26294" /><path
           d="m 191.363,259.766 c -0.375,0.066 -0.441,0.085 -0.507,0.085 -0.264,0 -0.528,0 -0.793,-0.012 -1.469,-0.071 -2.906,-0.241 -4.31,-0.505 l 0.174,-1.545 c 1.728,0.628 3.46,1.259 5.436,1.977"
           style="fill:#f35c00;fill-opacity:1;fill-rule:nonzero;stroke:none"
           id="path26296" /><path
           d="m 206.435,257.528 c -6.853,0.677 -13.59,-0.371 -20.342,-1.197 l 0.245,-2.16 c 6.649,1.473 13.351,2.541 20.097,3.357"
           style="fill:#f35c00;fill-opacity:1;fill-rule:nonzero;stroke:none"
           id="path26298" /><path
           d="m 222.367,240.287 c -1.906,0.374 -3.806,0.779 -5.704,1.215 -0.265,0.063 -0.684,0.023 -0.725,0.364 -0.044,0.371 0.341,0.544 0.636,0.684 1.249,0.595 2.597,0.816 3.958,0.932 1.579,0.137 3.164,0.239 4.779,0.347 l 0.485,0.584 c -0.085,0.029 -0.169,0.056 -0.25,0.088 -2.558,1.025 -5.225,1.561 -7.973,1.588 -3.66,0.032 -7.318,0.017 -10.978,-0.005 -0.772,0 -1.532,0.037 -2.282,0.207 -1.528,0.344 -3.044,0.734 -4.507,1.609 1.175,0.323 2.189,0.617 3.214,0.873 0.806,0.207 1.607,0.39 2.459,0.313 3.673,-0.338 7.356,-0.65 11.029,-0.97 0.698,-0.063 1.395,-0.099 2.095,-0.143 0.682,-0.048 1.369,-0.092 2.056,-0.136 -2.072,1.121 -4.251,1.682 -6.492,2.028 -3.548,0.547 -7.105,0.143 -10.658,0.098 -4.82,-0.066 -9.64,-0.565 -14.46,-0.109 -0.742,0.067 -1.485,0.122 -2.249,0.247 l 5.253,-46.274 z"
           style="fill:#f35c00;fill-opacity:1;fill-rule:nonzero;stroke:none"
           id="path26300" /><path
           d="m 188.027,251.852 c 4.199,1.698 8.598,1.903 13.046,1.713 4.615,-0.199 9.204,-0.677 13.877,-1.272 -0.471,0.405 -0.97,0.507 -1.433,0.665 -4.189,1.427 -8.504,2.165 -12.917,2.245 -3.799,0.073 -7.554,-0.566 -11.331,-0.859 -0.975,-0.073 -1.948,-0.163 -2.922,-0.25 l 0.324,-2.85 c 0.452,0.233 0.902,0.425 1.356,0.608"
           style="fill:#f35c00;fill-opacity:1;fill-rule:nonzero;stroke:none"
           id="path26302" /><path
           d="m 248.223,210.64 -56.17,-6.813 51.381,-38.306 z"
           style="fill:#ff8500;fill-opacity:1;fill-rule:nonzero;stroke:none"
           id="path26304" /><path
           d="M 243.434,165.521 192.053,203.827 166.639,146 Z"
           style="fill:#fe9400;fill-opacity:1;fill-rule:nonzero;stroke:none"
           id="path26306" /><path
           d="m 186.8,250.101 c -0.47,0.077 -0.948,0.18 -1.436,0.33 0.438,0.328 0.873,0.59 1.307,0.813 l -0.324,2.85 c -0.206,-0.019 -0.413,-0.038 -0.62,-0.056 0.204,0.046 0.408,0.088 0.611,0.133 l -0.245,2.16 c -1.864,-0.228 -3.728,-0.439 -5.597,-0.592 1.763,0.724 3.538,1.363 5.312,2.007 0.04,0.014 0.08,0.028 0.119,0.043 l -0.174,1.545 c -4.163,-0.782 -8.048,-2.397 -11.669,-4.814 -2.377,-1.588 -4.787,-3.127 -7.237,-4.603 -1.283,-0.776 -2.403,-0.566 -3.487,0.304 -0.433,0.353 -0.838,0.764 -1.198,1.191 -0.988,1.183 -0.984,1.231 0.232,2.131 2.575,1.895 5.514,3.056 8.49,4.114 4.225,1.507 8.475,2.943 12.568,4.792 0.287,0.124 0.652,0.176 0.879,0.646 -3.578,-1.098 -6.974,-2.344 -10.383,-3.542 -6.426,-2.256 -12.726,-4.853 -19.317,-6.627 -8.557,-2.308 -17.083,-2.308 -25.595,0.154 -0.95,0.278 -1.87,0.353 -2.844,0.278 -0.133,-0.01 -0.265,-0.023 -0.397,-0.034 l 66.258,-49.497 z"
           style="fill:#f04f00;fill-opacity:1;fill-rule:nonzero;stroke:none"
           id="path26308" /><path
           d="m 192.053,203.827 -66.258,49.497 c -3.865,-0.343 -7.581,-1.32 -11.235,-2.589 -0.088,-0.03 -0.174,-0.061 -0.262,-0.093 l 0.592,-46.632 z"
           style="fill:#f64e00;fill-opacity:1;fill-rule:nonzero;stroke:none"
           id="path26310" /><path
           d="m 145.839,116.02 c 0.187,-0.313 0.379,-0.624 0.576,-0.932 0.376,-0.587 0.831,-0.963 1.5,-1.193 4.525,-1.554 9.022,-3.175 13.549,-4.725 8.715,-2.984 17.378,-6.07 25.519,-10.453 0.25,-0.136 0.485,-0.154 0.758,-0.136 4.071,0.287 8.14,0.579 12.209,0.855 l -13.525,18.906 c -1.764,-0.762 -3.514,-1.561 -5.357,-2.132 -2.094,-0.647 -4.136,-0.831 -6.175,0.3 -3.769,2.094 -7.249,4.571 -10.439,7.469 -1.391,1.268 -1.803,2.719 -1.524,4.563 0.61,4.03 1.8,7.896 3.053,11.753 0.243,0.75 0.551,1.021 1.378,1.008 0.895,-0.014 1.789,-0.035 2.684,-0.064 L 166.639,146 Z"
           style="fill:#ffa300;fill-opacity:1;fill-rule:nonzero;stroke:none"
           id="path26312" /><path
           d="M 192.053,203.827 114.89,204.01 166.639,146 Z"
           style="fill:#fd7700;fill-opacity:1;fill-rule:nonzero;stroke:none"
           id="path26314" /><path
           d="m 116.52,140.797 c -0.054,-0.855 -0.27,-1.734 -0.658,-2.641 -0.204,-0.476 -0.422,-0.947 -0.644,-1.415 l 10.017,-20.763 c 6.087,5.416 10.808,11.708 12.635,19.858 0.074,0.33 0.158,0.624 0.662,0.664 0.725,-2.523 1.52,-5.025 2.157,-7.564 1.144,-4.548 2.736,-8.899 5.15,-12.916 l 20.8,29.98 z"
           style="fill:#ff8800;fill-opacity:1;fill-rule:nonzero;stroke:none"
           id="path26316" /><path
           d="m 114.89,204.01 -1.314,-56.712 c 0.495,-0.547 0.97,-1.116 1.411,-1.719 1.12,-1.533 1.638,-3.114 1.533,-4.782 L 166.639,146 Z"
           style="fill:#fd7400;fill-opacity:1;fill-rule:nonzero;stroke:none"
           id="path26318" /><path
           d="m 79.118,150.353 c 0.394,0.032 0.788,0.067 1.182,0.097 1.578,0.126 3.156,0.25 4.866,0.382 -0.506,0.971 -0.948,1.812 -1.455,2.778 1.525,-0.126 2.892,-0.243 4.476,-0.376 -1.018,1.309 -1.909,2.459 -2.951,3.8 1.892,-0.448 3.502,-0.829 5.113,-1.216 -0.719,0.673 -1.488,1.187 -2.282,1.658 -0.452,0.271 -0.567,0.455 -0.079,0.829 1.343,1.041 2.664,2.106 3.966,3.194 0.41,0.341 0.636,0.309 0.933,-0.122 0.65,-0.94 1.346,-1.852 2.106,-2.888 0.611,1.242 1.137,2.315 1.745,3.553 0.203,-0.482 0.325,-0.746 0.431,-1.018 0.59,-1.528 0.583,-1.52 1.731,-0.423 0.318,0.305 0.569,0.71 1.104,0.912 0.053,-0.603 0.095,-1.127 0.149,-1.654 0.053,-0.525 -0.051,-1.076 0.222,-1.741 0.145,0.269 0.2,0.386 0.264,0.492 0.419,0.709 0.544,1.892 1.217,2.069 0.719,0.191 1.488,-0.712 2.277,-1.033 0.697,-0.283 0.511,-0.577 0.144,-1 -0.623,-0.715 -1.209,-1.461 -1.947,-2.361 1.42,0.194 2.607,0.357 3.922,0.536 -0.481,-1.154 -0.895,-2.138 -1.391,-3.321 0.947,0.507 1.668,0.89 2.381,1.271 1.006,-2.454 0.317,-4.82 -0.103,-7.483 0.883,1.157 1.598,2.067 2.283,2.993 0.255,0.345 0.435,0.514 0.85,0.157 1.162,-0.991 2.283,-2.015 3.304,-3.14 l 1.314,56.712 z"
           style="fill:#fa6200;fill-opacity:1;fill-rule:nonzero;stroke:none"
           id="path26320" /><path
           d="m 114.89,204.01 -0.592,46.632 c -4.365,-1.536 -8.565,-3.431 -12.681,-5.515 L 83.951,221.322 Z"
           style="fill:#f03600;fill-opacity:1;fill-rule:nonzero;stroke:none"
           id="path26322" /><path
           d="m 111.896,130.791 c -3.353,-5.367 -7.316,-10.302 -10.873,-15.527 -2.468,-3.625 -4.984,-7.234 -6.767,-11.267 -0.065,-0.145 -0.135,-0.281 -0.211,-0.413 l 20.855,-2.683 c -0.031,0.143 -0.064,0.284 -0.094,0.425 -0.466,2.164 -0.061,4.008 1.398,5.646 0.179,0.199 0.335,0.413 0.505,0.617 2.478,2.977 5.333,5.578 8.232,8.128 0.099,0.086 0.196,0.173 0.294,0.261 l -10.017,20.763 c -0.979,-2.055 -2.114,-4.019 -3.322,-5.95"
           style="fill:#ff7200;fill-opacity:1;fill-rule:nonzero;stroke:none"
           id="path26324" /><path
           d="m 93.427,102.777 c -3.133,-3.08 -6.26,-6.162 -9.378,-9.258 -0.265,-0.261 -0.646,-0.463 -0.694,-0.938 3.096,-0.944 6.195,-1.83 9.345,-2.505 2.887,-0.621 5.756,-1.371 8.77,-0.949 2.488,0.35 4.707,0.99 5.433,3.804 0.01,0.033 0.032,0.061 0.041,0.094 0.376,1.585 1.439,2.124 2.981,2.015 0.626,-0.045 1.198,-0.111 1.54,-0.714 0.1,-0.18 0.215,-0.323 0.428,-0.388 1.306,-0.383 2.61,-0.769 3.915,-1.163 0.4,-0.121 0.56,0.024 0.521,0.427 -0.031,0.33 -0.053,0.662 -0.09,0.992 -0.245,2.277 -0.844,4.482 -1.339,6.707 l -20.855,2.683 c -0.168,-0.294 -0.367,-0.56 -0.618,-0.807"
           style="fill:#fc6300;fill-opacity:1;fill-rule:nonzero;stroke:none"
           id="path26326" /><path
           d="m 101.617,245.127 c -0.93,-0.47 -1.856,-0.95 -2.78,-1.438 -1.298,-0.691 -1.016,-0.661 -1.438,0.631 -0.331,1.014 -0.641,2.032 -0.893,3.065 -0.159,0.654 -0.533,1.022 -1.13,1.264 -2.177,0.889 -4.311,0.55 -6.413,-0.242 -2.392,-0.898 -4.476,-2.323 -6.449,-3.92 -1.703,-1.378 -3.412,-2.761 -5.36,-3.754 l 1.485,-4.241 c 0.905,0.153 1.809,0.34 2.707,0.576 0.242,0.067 0.469,0.203 0.761,0.052 0.943,-0.478 1.499,-2.186 0.975,-3.108 -0.712,-1.256 -1.484,-2.473 -2.29,-3.668 l 3.159,-9.022 z"
           style="fill:#e42300;fill-opacity:1;fill-rule:nonzero;stroke:none"
           id="path26328" /><path
           d="m 83.951,221.322 -7.01,-71.158 c 0.725,0.065 1.45,0.128 2.177,0.189 l 35.772,53.657 z"
           style="fill:#f64d00;fill-opacity:1;fill-rule:nonzero;stroke:none"
           id="path26330" /><path
           d="m 36.512,154.19 c 1.967,-0.97 1.961,-0.962 3.298,0.764 0.309,0.4 0.506,0.908 1.201,0.89 2.794,-0.07 5.275,0.838 7.531,2.469 1.246,0.897 2.615,1.565 4.135,1.91 0.927,0.211 1.184,-0.448 1.611,-0.984 0.406,-0.508 0.463,-0.915 0.115,-1.508 -1.515,-2.582 -2.973,-5.193 -4.445,-7.802 -0.13,-0.229 -0.31,-0.478 -0.308,-0.713 0.004,-0.581 1.973,-2.042 2.607,-1.962 2.208,0.286 4.413,0.592 6.624,0.875 4.205,0.533 8.412,1.048 12.626,1.498 l -39.279,23.781 c -0.912,-1.306 -1.896,-2.568 -2.959,-3.783 -0.752,-0.859 -1.621,-1.561 -2.883,-1.554 -0.527,0.003 -1.034,-0.213 -1.522,-0.441 -1.017,-0.468 -1.608,-1.128 -1.608,-2.362 0,-1.08 -0.048,-2.194 -0.359,-3.251 v -1.199 c 0.304,-0.125 0.619,-0.231 0.912,-0.375 4.236,-2.079 8.469,-4.166 12.703,-6.253"
           style="fill:#e94c00;fill-opacity:1;fill-rule:nonzero;stroke:none"
           id="path26332" /><path
           d="m 76.13,240.257 c -3.266,-1.36 -6.532,-1.741 -9.626,0.522 -0.134,0.099 -0.281,0.179 -0.422,0.268 -2.098,1.297 -2.085,1.283 -3.79,-0.504 -0.363,-0.377 -0.369,-0.609 -0.028,-0.98 0.981,-1.062 2.08,-1.966 3.344,-2.66 0.812,-0.445 1.603,-1.032 2.563,-1.032 3.506,0 7.012,0.039 10.468,0.621 l -1.485,4.241 c -0.335,-0.17 -0.674,-0.331 -1.024,-0.476"
           style="fill:#db1300;fill-opacity:1;fill-rule:nonzero;stroke:none"
           id="path26334" /><path
           d="m 80.792,230.344 c -0.552,-0.817 -1.12,-1.623 -1.698,-2.425 -0.61,-0.842 -1.238,-1.67 -1.874,-2.49 l 6.731,-4.107 z"
           style="fill:#db1300;fill-opacity:1;fill-rule:nonzero;stroke:none"
           id="path26336" /><path
           d="m 77.22,225.429 c -2.134,-2.745 -4.404,-5.375 -6.697,-7.988 l 13.428,3.881 z"
           style="fill:#dd1c00;fill-opacity:1;fill-rule:nonzero;stroke:none"
           id="path26338" /><path
           d="m 76.941,150.164 7.01,71.158 -13.428,-3.881 c -1.762,-2.008 -3.538,-4.006 -5.271,-6.039 -1.417,-1.66 -1.507,-1.8 -3.48,-0.838 -1.76,0.857 -3.125,0.551 -4.656,-0.46 -2.225,-1.464 -4.09,-3.115 -4.934,-5.775 -0.559,-1.759 -1.403,-3.427 -2.143,-5.194 -0.445,0.378 -0.811,0.687 -1.269,1.076 -0.428,-1.741 -0.824,-3.351 -1.255,-5.107 -0.545,0.611 -0.968,1.08 -1.503,1.674 -0.352,-1.766 -0.662,-3.328 -0.984,-4.944 -0.55,0.408 -0.542,1.087 -1.102,1.403 -0.708,-1.704 -1.426,-3.349 -2.063,-5.024 -0.277,-0.729 -0.565,-0.872 -1.16,-0.34 -0.621,0.559 -0.774,0.258 -0.846,-0.43 -0.117,-1.094 -0.118,-2.214 -0.464,-3.361 -0.289,0.287 -0.486,0.508 -0.71,0.694 -0.207,0.177 -0.3,0.54 -0.685,0.467 -0.129,-0.561 -0.193,-1.132 -0.394,-1.649 -1.402,-3.626 -3.176,-7.034 -5.376,-10.186 l 39.279,-23.781 c 1.809,0.192 3.621,0.373 5.434,0.537"
           style="fill:#ed4100;fill-opacity:1;fill-rule:nonzero;stroke:none"
           id="path26340" /></g></g></g></svg>
